<svg xmlns="http://www.w3.org/2000/svg" xmlns:xlink="http://www.w3.org/1999/xlink" id="Layer_2" x="0" y="0" enable-background="new 0 0 498 498" version="1.1" viewBox="0 0 498 498" xml:space="preserve"><g><g><circle cx="249" cy="249" r="249"/><linearGradient id="SVGID_1_" x1="88.583" x2="415.368" y1="415.184" y2="88.399" gradientUnits="userSpaceOnUse"><stop offset="0" style="stop-color:#c947e6"/><stop offset=".031" style="stop-color:#c04ee4"/><stop offset=".172" style="stop-color:#9c6bdb"/><stop offset=".304" style="stop-color:#827fd5"/><stop offset=".423" style="stop-color:#728cd1"/><stop offset=".516" style="stop-color:#6d90d0"/><stop offset=".607" style="stop-color:#6598cd"/><stop offset=".75" style="stop-color:#4faec3"/><stop offset=".926" style="stop-color:#2cd3b4"/><stop offset="1" style="stop-color:#1be4ad"/></linearGradient><path fill="url(#SVGID_1_)" d="M435.9,117.4l-61.2,60.3c-1,1-2.3,1.5-3.6,1.5H72.2c-5.3,0-7.9-6.4-4.2-10.1l61.2-60.3 c1-1,2.3-1.5,3.6-1.5h298.9C437,107.3,439.7,113.7,435.9,117.4z M435.9,277.6l-61.2-60.3c-1-1-2.3-1.5-3.6-1.5H72.2 c-5.3,0-7.9,6.4-4.2,10.1l61.2,60.3c1,1,2.3,1.5,3.6,1.5h298.9C437,287.7,439.7,281.3,435.9,277.6z M431.7,324.4H132.9 c-1.4,0-2.7,0.5-3.6,1.5L68,386.2c-3.8,3.7-1.1,10.1,4.2,10.1h298.9c1.4,0,2.7-0.5,3.6-1.5l61.2-60.3 C439.7,330.8,437,324.4,431.7,324.4z"/></g><path fill="#FFF" d="M275.3,373.7l34.2-157.3l-62.8,157.3h-47.1l0.7-141.2l-44.1,141.2h-27.5l74.5-229.2 c-33.6,11-54.2,37-52.5,75c0.7,15.7,4.1,20.1,5.3,23.1c-24.1,0.8-36.2-8.3-37.2-30c-1.9-43,53.9-89.1,105.5-89.1 c10,0,18.6,0.9,26.9,3.9l0.1,192.4l73-191.7h53l-52.5,245.5H275.3z"/></g></svg>